<mxfile host="app.diagrams.net" modified="2021-03-03T14:49:47.463Z" agent="5.0 (X11; Linux x86_64) AppleWebKit/537.36 (KHTML, like Gecko) Chrome/88.0.4324.182 Safari/537.36" etag="r6-oiWEIqCwBb0ESHGI3" version="14.4.3" type="github">
  <diagram id="C5RBs43oDa-KdzZeNtuy" name="Page-1">
    <mxGraphModel dx="3392" dy="1520" grid="1" gridSize="10" guides="1" tooltips="1" connect="1" arrows="1" fold="1" page="1" pageScale="1" pageWidth="827" pageHeight="1169" math="0" shadow="0">
      <root>
        <mxCell id="WIyWlLk6GJQsqaUBKTNV-0" />
        <mxCell id="WIyWlLk6GJQsqaUBKTNV-1" parent="WIyWlLk6GJQsqaUBKTNV-0" />
        <mxCell id="zkfFHV4jXpPFQw0GAbJ--0" value="Person" style="swimlane;fontStyle=2;align=center;verticalAlign=top;childLayout=stackLayout;horizontal=1;startSize=26;horizontalStack=0;resizeParent=1;resizeLast=0;collapsible=1;marginBottom=0;rounded=0;shadow=0;strokeWidth=1;" parent="WIyWlLk6GJQsqaUBKTNV-1" vertex="1">
          <mxGeometry x="220" y="1290" width="160" height="138" as="geometry">
            <mxRectangle x="230" y="140" width="160" height="26" as="alternateBounds" />
          </mxGeometry>
        </mxCell>
        <mxCell id="zkfFHV4jXpPFQw0GAbJ--1" value="Name" style="text;align=left;verticalAlign=top;spacingLeft=4;spacingRight=4;overflow=hidden;rotatable=0;points=[[0,0.5],[1,0.5]];portConstraint=eastwest;" parent="zkfFHV4jXpPFQw0GAbJ--0" vertex="1">
          <mxGeometry y="26" width="160" height="26" as="geometry" />
        </mxCell>
        <mxCell id="zkfFHV4jXpPFQw0GAbJ--2" value="Phone Number" style="text;align=left;verticalAlign=top;spacingLeft=4;spacingRight=4;overflow=hidden;rotatable=0;points=[[0,0.5],[1,0.5]];portConstraint=eastwest;rounded=0;shadow=0;html=0;" parent="zkfFHV4jXpPFQw0GAbJ--0" vertex="1">
          <mxGeometry y="52" width="160" height="26" as="geometry" />
        </mxCell>
        <mxCell id="zkfFHV4jXpPFQw0GAbJ--3" value="Email Address" style="text;align=left;verticalAlign=top;spacingLeft=4;spacingRight=4;overflow=hidden;rotatable=0;points=[[0,0.5],[1,0.5]];portConstraint=eastwest;rounded=0;shadow=0;html=0;" parent="zkfFHV4jXpPFQw0GAbJ--0" vertex="1">
          <mxGeometry y="78" width="160" height="26" as="geometry" />
        </mxCell>
        <mxCell id="zkfFHV4jXpPFQw0GAbJ--4" value="" style="line;html=1;strokeWidth=1;align=left;verticalAlign=middle;spacingTop=-1;spacingLeft=3;spacingRight=3;rotatable=0;labelPosition=right;points=[];portConstraint=eastwest;" parent="zkfFHV4jXpPFQw0GAbJ--0" vertex="1">
          <mxGeometry y="104" width="160" height="8" as="geometry" />
        </mxCell>
        <mxCell id="zkfFHV4jXpPFQw0GAbJ--5" value="Purchase Parking Pass" style="text;align=left;verticalAlign=top;spacingLeft=4;spacingRight=4;overflow=hidden;rotatable=0;points=[[0,0.5],[1,0.5]];portConstraint=eastwest;" parent="zkfFHV4jXpPFQw0GAbJ--0" vertex="1">
          <mxGeometry y="112" width="160" height="26" as="geometry" />
        </mxCell>
        <mxCell id="zkfFHV4jXpPFQw0GAbJ--6" value="Student" style="swimlane;fontStyle=0;align=center;verticalAlign=top;childLayout=stackLayout;horizontal=1;startSize=26;horizontalStack=0;resizeParent=1;resizeLast=0;collapsible=1;marginBottom=0;rounded=0;shadow=0;strokeWidth=1;" parent="WIyWlLk6GJQsqaUBKTNV-1" vertex="1">
          <mxGeometry x="120" y="1530" width="160" height="138" as="geometry">
            <mxRectangle x="130" y="380" width="160" height="26" as="alternateBounds" />
          </mxGeometry>
        </mxCell>
        <mxCell id="zkfFHV4jXpPFQw0GAbJ--7" value="Student Number" style="text;align=left;verticalAlign=top;spacingLeft=4;spacingRight=4;overflow=hidden;rotatable=0;points=[[0,0.5],[1,0.5]];portConstraint=eastwest;" parent="zkfFHV4jXpPFQw0GAbJ--6" vertex="1">
          <mxGeometry y="26" width="160" height="26" as="geometry" />
        </mxCell>
        <mxCell id="zkfFHV4jXpPFQw0GAbJ--8" value="Average Mark" style="text;align=left;verticalAlign=top;spacingLeft=4;spacingRight=4;overflow=hidden;rotatable=0;points=[[0,0.5],[1,0.5]];portConstraint=eastwest;rounded=0;shadow=0;html=0;" parent="zkfFHV4jXpPFQw0GAbJ--6" vertex="1">
          <mxGeometry y="52" width="160" height="26" as="geometry" />
        </mxCell>
        <mxCell id="zkfFHV4jXpPFQw0GAbJ--9" value="" style="line;html=1;strokeWidth=1;align=left;verticalAlign=middle;spacingTop=-1;spacingLeft=3;spacingRight=3;rotatable=0;labelPosition=right;points=[];portConstraint=eastwest;" parent="zkfFHV4jXpPFQw0GAbJ--6" vertex="1">
          <mxGeometry y="78" width="160" height="8" as="geometry" />
        </mxCell>
        <mxCell id="zkfFHV4jXpPFQw0GAbJ--10" value="Is Eligibale To Enroll" style="text;align=left;verticalAlign=top;spacingLeft=4;spacingRight=4;overflow=hidden;rotatable=0;points=[[0,0.5],[1,0.5]];portConstraint=eastwest;fontStyle=4" parent="zkfFHV4jXpPFQw0GAbJ--6" vertex="1">
          <mxGeometry y="86" width="160" height="26" as="geometry" />
        </mxCell>
        <mxCell id="zkfFHV4jXpPFQw0GAbJ--11" value="Get Seminars Taken" style="text;align=left;verticalAlign=top;spacingLeft=4;spacingRight=4;overflow=hidden;rotatable=0;points=[[0,0.5],[1,0.5]];portConstraint=eastwest;" parent="zkfFHV4jXpPFQw0GAbJ--6" vertex="1">
          <mxGeometry y="112" width="160" height="26" as="geometry" />
        </mxCell>
        <mxCell id="zkfFHV4jXpPFQw0GAbJ--12" value="" style="endArrow=block;endSize=10;endFill=0;shadow=0;strokeWidth=1;rounded=0;edgeStyle=elbowEdgeStyle;elbow=vertical;" parent="WIyWlLk6GJQsqaUBKTNV-1" source="zkfFHV4jXpPFQw0GAbJ--6" target="zkfFHV4jXpPFQw0GAbJ--0" edge="1">
          <mxGeometry width="160" relative="1" as="geometry">
            <mxPoint x="200" y="1373" as="sourcePoint" />
            <mxPoint x="200" y="1373" as="targetPoint" />
          </mxGeometry>
        </mxCell>
        <mxCell id="zkfFHV4jXpPFQw0GAbJ--13" value="Professor" style="swimlane;fontStyle=0;align=center;verticalAlign=top;childLayout=stackLayout;horizontal=1;startSize=26;horizontalStack=0;resizeParent=1;resizeLast=0;collapsible=1;marginBottom=0;rounded=0;shadow=0;strokeWidth=1;" parent="WIyWlLk6GJQsqaUBKTNV-1" vertex="1">
          <mxGeometry x="330" y="1530" width="160" height="70" as="geometry">
            <mxRectangle x="340" y="380" width="170" height="26" as="alternateBounds" />
          </mxGeometry>
        </mxCell>
        <mxCell id="zkfFHV4jXpPFQw0GAbJ--14" value="Salary" style="text;align=left;verticalAlign=top;spacingLeft=4;spacingRight=4;overflow=hidden;rotatable=0;points=[[0,0.5],[1,0.5]];portConstraint=eastwest;" parent="zkfFHV4jXpPFQw0GAbJ--13" vertex="1">
          <mxGeometry y="26" width="160" height="26" as="geometry" />
        </mxCell>
        <mxCell id="zkfFHV4jXpPFQw0GAbJ--15" value="" style="line;html=1;strokeWidth=1;align=left;verticalAlign=middle;spacingTop=-1;spacingLeft=3;spacingRight=3;rotatable=0;labelPosition=right;points=[];portConstraint=eastwest;" parent="zkfFHV4jXpPFQw0GAbJ--13" vertex="1">
          <mxGeometry y="52" width="160" height="8" as="geometry" />
        </mxCell>
        <mxCell id="zkfFHV4jXpPFQw0GAbJ--16" value="" style="endArrow=block;endSize=10;endFill=0;shadow=0;strokeWidth=1;rounded=0;edgeStyle=elbowEdgeStyle;elbow=vertical;" parent="WIyWlLk6GJQsqaUBKTNV-1" source="zkfFHV4jXpPFQw0GAbJ--13" target="zkfFHV4jXpPFQw0GAbJ--0" edge="1">
          <mxGeometry width="160" relative="1" as="geometry">
            <mxPoint x="210" y="1543" as="sourcePoint" />
            <mxPoint x="310" y="1441" as="targetPoint" />
          </mxGeometry>
        </mxCell>
        <mxCell id="zkfFHV4jXpPFQw0GAbJ--17" value="Address" style="swimlane;fontStyle=0;align=center;verticalAlign=top;childLayout=stackLayout;horizontal=1;startSize=26;horizontalStack=0;resizeParent=1;resizeLast=0;collapsible=1;marginBottom=0;rounded=0;shadow=0;strokeWidth=1;" parent="WIyWlLk6GJQsqaUBKTNV-1" vertex="1">
          <mxGeometry x="508" y="1290" width="160" height="216" as="geometry">
            <mxRectangle x="550" y="140" width="160" height="26" as="alternateBounds" />
          </mxGeometry>
        </mxCell>
        <mxCell id="zkfFHV4jXpPFQw0GAbJ--18" value="Street" style="text;align=left;verticalAlign=top;spacingLeft=4;spacingRight=4;overflow=hidden;rotatable=0;points=[[0,0.5],[1,0.5]];portConstraint=eastwest;" parent="zkfFHV4jXpPFQw0GAbJ--17" vertex="1">
          <mxGeometry y="26" width="160" height="26" as="geometry" />
        </mxCell>
        <mxCell id="zkfFHV4jXpPFQw0GAbJ--19" value="City" style="text;align=left;verticalAlign=top;spacingLeft=4;spacingRight=4;overflow=hidden;rotatable=0;points=[[0,0.5],[1,0.5]];portConstraint=eastwest;rounded=0;shadow=0;html=0;" parent="zkfFHV4jXpPFQw0GAbJ--17" vertex="1">
          <mxGeometry y="52" width="160" height="26" as="geometry" />
        </mxCell>
        <mxCell id="zkfFHV4jXpPFQw0GAbJ--20" value="State" style="text;align=left;verticalAlign=top;spacingLeft=4;spacingRight=4;overflow=hidden;rotatable=0;points=[[0,0.5],[1,0.5]];portConstraint=eastwest;rounded=0;shadow=0;html=0;" parent="zkfFHV4jXpPFQw0GAbJ--17" vertex="1">
          <mxGeometry y="78" width="160" height="26" as="geometry" />
        </mxCell>
        <mxCell id="zkfFHV4jXpPFQw0GAbJ--21" value="Postal Code" style="text;align=left;verticalAlign=top;spacingLeft=4;spacingRight=4;overflow=hidden;rotatable=0;points=[[0,0.5],[1,0.5]];portConstraint=eastwest;rounded=0;shadow=0;html=0;" parent="zkfFHV4jXpPFQw0GAbJ--17" vertex="1">
          <mxGeometry y="104" width="160" height="26" as="geometry" />
        </mxCell>
        <mxCell id="zkfFHV4jXpPFQw0GAbJ--22" value="Country" style="text;align=left;verticalAlign=top;spacingLeft=4;spacingRight=4;overflow=hidden;rotatable=0;points=[[0,0.5],[1,0.5]];portConstraint=eastwest;rounded=0;shadow=0;html=0;" parent="zkfFHV4jXpPFQw0GAbJ--17" vertex="1">
          <mxGeometry y="130" width="160" height="26" as="geometry" />
        </mxCell>
        <mxCell id="zkfFHV4jXpPFQw0GAbJ--23" value="" style="line;html=1;strokeWidth=1;align=left;verticalAlign=middle;spacingTop=-1;spacingLeft=3;spacingRight=3;rotatable=0;labelPosition=right;points=[];portConstraint=eastwest;" parent="zkfFHV4jXpPFQw0GAbJ--17" vertex="1">
          <mxGeometry y="156" width="160" height="8" as="geometry" />
        </mxCell>
        <mxCell id="zkfFHV4jXpPFQw0GAbJ--24" value="Validate" style="text;align=left;verticalAlign=top;spacingLeft=4;spacingRight=4;overflow=hidden;rotatable=0;points=[[0,0.5],[1,0.5]];portConstraint=eastwest;" parent="zkfFHV4jXpPFQw0GAbJ--17" vertex="1">
          <mxGeometry y="164" width="160" height="26" as="geometry" />
        </mxCell>
        <mxCell id="zkfFHV4jXpPFQw0GAbJ--25" value="Output As Label" style="text;align=left;verticalAlign=top;spacingLeft=4;spacingRight=4;overflow=hidden;rotatable=0;points=[[0,0.5],[1,0.5]];portConstraint=eastwest;" parent="zkfFHV4jXpPFQw0GAbJ--17" vertex="1">
          <mxGeometry y="190" width="160" height="26" as="geometry" />
        </mxCell>
        <mxCell id="zkfFHV4jXpPFQw0GAbJ--26" value="" style="endArrow=open;shadow=0;strokeWidth=1;rounded=0;endFill=1;edgeStyle=elbowEdgeStyle;elbow=vertical;" parent="WIyWlLk6GJQsqaUBKTNV-1" source="zkfFHV4jXpPFQw0GAbJ--0" target="zkfFHV4jXpPFQw0GAbJ--17" edge="1">
          <mxGeometry x="0.5" y="41" relative="1" as="geometry">
            <mxPoint x="380" y="1362" as="sourcePoint" />
            <mxPoint x="540" y="1362" as="targetPoint" />
            <mxPoint x="-40" y="32" as="offset" />
          </mxGeometry>
        </mxCell>
        <mxCell id="zkfFHV4jXpPFQw0GAbJ--27" value="0..1" style="resizable=0;align=left;verticalAlign=bottom;labelBackgroundColor=none;fontSize=12;" parent="zkfFHV4jXpPFQw0GAbJ--26" connectable="0" vertex="1">
          <mxGeometry x="-1" relative="1" as="geometry">
            <mxPoint y="4" as="offset" />
          </mxGeometry>
        </mxCell>
        <mxCell id="zkfFHV4jXpPFQw0GAbJ--28" value="1" style="resizable=0;align=right;verticalAlign=bottom;labelBackgroundColor=none;fontSize=12;" parent="zkfFHV4jXpPFQw0GAbJ--26" connectable="0" vertex="1">
          <mxGeometry x="1" relative="1" as="geometry">
            <mxPoint x="-7" y="4" as="offset" />
          </mxGeometry>
        </mxCell>
        <mxCell id="zkfFHV4jXpPFQw0GAbJ--29" value="lives at" style="text;html=1;resizable=0;points=[];;align=center;verticalAlign=middle;labelBackgroundColor=none;rounded=0;shadow=0;strokeWidth=1;fontSize=12;" parent="zkfFHV4jXpPFQw0GAbJ--26" vertex="1" connectable="0">
          <mxGeometry x="0.5" y="49" relative="1" as="geometry">
            <mxPoint x="-38" y="40" as="offset" />
          </mxGeometry>
        </mxCell>
        <mxCell id="JLqpty3g-pcIaHHwFfQo-25" style="edgeStyle=orthogonalEdgeStyle;rounded=0;orthogonalLoop=1;jettySize=auto;html=1;" parent="WIyWlLk6GJQsqaUBKTNV-1" source="JLqpty3g-pcIaHHwFfQo-2" target="JLqpty3g-pcIaHHwFfQo-21" edge="1">
          <mxGeometry relative="1" as="geometry">
            <Array as="points">
              <mxPoint x="30" y="300" />
              <mxPoint x="-30" y="300" />
            </Array>
          </mxGeometry>
        </mxCell>
        <mxCell id="JLqpty3g-pcIaHHwFfQo-2" value="Create a new game" style="swimlane;fontStyle=2;align=center;verticalAlign=top;childLayout=stackLayout;horizontal=1;startSize=26;horizontalStack=0;resizeParent=1;resizeLast=0;collapsible=1;marginBottom=0;rounded=0;shadow=0;strokeWidth=1;" parent="WIyWlLk6GJQsqaUBKTNV-1" vertex="1">
          <mxGeometry x="-460" y="50" width="350" height="210" as="geometry">
            <mxRectangle x="230" y="140" width="160" height="26" as="alternateBounds" />
          </mxGeometry>
        </mxCell>
        <mxCell id="2fZSMOCoQIJgiGsuQsai-2" value="- Create master peer: create_master_peer( port ) -&amp;gt; &quot;Success&quot;&lt;br&gt;&amp;nbsp; &amp;nbsp; &amp;nbsp; &amp;nbsp;1. socket select() wait for connections (Thread C)" style="text;html=1;align=left;verticalAlign=middle;resizable=0;points=[];autosize=1;" parent="JLqpty3g-pcIaHHwFfQo-2" vertex="1">
          <mxGeometry y="26" width="350" height="30" as="geometry" />
        </mxCell>
        <mxCell id="JLqpty3g-pcIaHHwFfQo-15" style="edgeStyle=orthogonalEdgeStyle;rounded=0;orthogonalLoop=1;jettySize=auto;html=1;exitX=0;exitY=1;exitDx=0;exitDy=0;" parent="WIyWlLk6GJQsqaUBKTNV-1" source="JLqpty3g-pcIaHHwFfQo-13" target="JLqpty3g-pcIaHHwFfQo-2" edge="1">
          <mxGeometry relative="1" as="geometry" />
        </mxCell>
        <mxCell id="JLqpty3g-pcIaHHwFfQo-20" style="edgeStyle=orthogonalEdgeStyle;rounded=0;orthogonalLoop=1;jettySize=auto;html=1;exitX=1;exitY=1;exitDx=0;exitDy=0;entryX=0.5;entryY=0;entryDx=0;entryDy=0;" parent="WIyWlLk6GJQsqaUBKTNV-1" source="JLqpty3g-pcIaHHwFfQo-13" target="JLqpty3g-pcIaHHwFfQo-16" edge="1">
          <mxGeometry relative="1" as="geometry" />
        </mxCell>
        <mxCell id="JLqpty3g-pcIaHHwFfQo-13" value="&lt;span style=&quot;text-align: left&quot;&gt;&amp;nbsp;From the view of user:&amp;nbsp;&lt;/span&gt;&lt;br style=&quot;text-align: left&quot;&gt;&lt;span style=&quot;text-align: left&quot;&gt;When he &lt;b&gt;opens&lt;/b&gt; the game&amp;nbsp;&lt;/span&gt;" style="ellipse;whiteSpace=wrap;html=1;" parent="WIyWlLk6GJQsqaUBKTNV-1" vertex="1">
          <mxGeometry x="170" y="-70" width="230" height="80" as="geometry" />
        </mxCell>
        <mxCell id="JLqpty3g-pcIaHHwFfQo-32" style="edgeStyle=orthogonalEdgeStyle;rounded=0;orthogonalLoop=1;jettySize=auto;html=1;" parent="WIyWlLk6GJQsqaUBKTNV-1" source="JLqpty3g-pcIaHHwFfQo-16" target="JLqpty3g-pcIaHHwFfQo-28" edge="1">
          <mxGeometry relative="1" as="geometry" />
        </mxCell>
        <mxCell id="JLqpty3g-pcIaHHwFfQo-16" value="Join an existing game" style="swimlane;fontStyle=2;align=center;verticalAlign=top;childLayout=stackLayout;horizontal=1;startSize=26;horizontalStack=0;resizeParent=1;resizeLast=0;collapsible=1;marginBottom=0;rounded=0;shadow=0;strokeWidth=1;" parent="WIyWlLk6GJQsqaUBKTNV-1" vertex="1">
          <mxGeometry x="483" y="80" width="185" height="90" as="geometry">
            <mxRectangle x="230" y="140" width="160" height="26" as="alternateBounds" />
          </mxGeometry>
        </mxCell>
        <mxCell id="JLqpty3g-pcIaHHwFfQo-18" value="" style="line;html=1;strokeWidth=1;align=left;verticalAlign=middle;spacingTop=-1;spacingLeft=3;spacingRight=3;rotatable=0;labelPosition=right;points=[];portConstraint=eastwest;" parent="JLqpty3g-pcIaHHwFfQo-16" vertex="1">
          <mxGeometry y="26" width="185" height="34" as="geometry" />
        </mxCell>
        <mxCell id="JLqpty3g-pcIaHHwFfQo-45" style="edgeStyle=orthogonalEdgeStyle;rounded=0;orthogonalLoop=1;jettySize=auto;html=1;exitX=0.5;exitY=1;exitDx=0;exitDy=0;entryX=0.5;entryY=0;entryDx=0;entryDy=0;" parent="WIyWlLk6GJQsqaUBKTNV-1" source="JLqpty3g-pcIaHHwFfQo-21" target="JLqpty3g-pcIaHHwFfQo-39" edge="1">
          <mxGeometry relative="1" as="geometry" />
        </mxCell>
        <mxCell id="JLqpty3g-pcIaHHwFfQo-21" value="Master-Peer" style="swimlane;fontStyle=2;align=center;verticalAlign=top;childLayout=stackLayout;horizontal=1;startSize=26;horizontalStack=0;resizeParent=1;resizeLast=0;collapsible=1;marginBottom=0;rounded=0;shadow=0;strokeWidth=1;" parent="WIyWlLk6GJQsqaUBKTNV-1" vertex="1">
          <mxGeometry x="-40" y="380" width="185" height="190" as="geometry">
            <mxRectangle x="230" y="140" width="160" height="26" as="alternateBounds" />
          </mxGeometry>
        </mxCell>
        <mxCell id="JLqpty3g-pcIaHHwFfQo-22" value="+ To invite friends:&#xa;    - get_ip_public()&#xa;    - get_port() " style="text;align=left;verticalAlign=top;spacingLeft=4;spacingRight=4;overflow=hidden;rotatable=0;points=[[0,0.5],[1,0.5]];portConstraint=eastwest;" parent="JLqpty3g-pcIaHHwFfQo-21" vertex="1">
          <mxGeometry y="26" width="185" height="124" as="geometry" />
        </mxCell>
        <mxCell id="JLqpty3g-pcIaHHwFfQo-23" value="" style="line;html=1;strokeWidth=1;align=left;verticalAlign=middle;spacingTop=-1;spacingLeft=3;spacingRight=3;rotatable=0;labelPosition=right;points=[];portConstraint=eastwest;" parent="JLqpty3g-pcIaHHwFfQo-21" vertex="1">
          <mxGeometry y="150" width="185" height="8" as="geometry" />
        </mxCell>
        <mxCell id="JLqpty3g-pcIaHHwFfQo-26" style="edgeStyle=orthogonalEdgeStyle;rounded=0;orthogonalLoop=1;jettySize=auto;html=1;" parent="WIyWlLk6GJQsqaUBKTNV-1" edge="1">
          <mxGeometry relative="1" as="geometry">
            <mxPoint x="400" as="targetPoint" />
            <Array as="points">
              <mxPoint x="53" y="350" />
              <mxPoint x="400" y="350" />
            </Array>
            <mxPoint x="53" y="380" as="sourcePoint" />
          </mxGeometry>
        </mxCell>
        <mxCell id="JLqpty3g-pcIaHHwFfQo-27" value="Copy IP+PORT &lt;br&gt;-&amp;gt; Send invitation" style="text;html=1;align=center;verticalAlign=middle;resizable=0;points=[];autosize=1;" parent="WIyWlLk6GJQsqaUBKTNV-1" vertex="1">
          <mxGeometry x="290" y="250" width="110" height="30" as="geometry" />
        </mxCell>
        <mxCell id="JLqpty3g-pcIaHHwFfQo-69" style="edgeStyle=orthogonalEdgeStyle;rounded=0;orthogonalLoop=1;jettySize=auto;html=1;exitX=0.5;exitY=1;exitDx=0;exitDy=0;entryX=0.5;entryY=0;entryDx=0;entryDy=0;startArrow=none;startFill=0;strokeColor=#000000;" parent="WIyWlLk6GJQsqaUBKTNV-1" source="JLqpty3g-pcIaHHwFfQo-28" target="JLqpty3g-pcIaHHwFfQo-60" edge="1">
          <mxGeometry relative="1" as="geometry" />
        </mxCell>
        <mxCell id="JLqpty3g-pcIaHHwFfQo-70" style="edgeStyle=orthogonalEdgeStyle;rounded=0;orthogonalLoop=1;jettySize=auto;html=1;exitX=0.5;exitY=1;exitDx=0;exitDy=0;entryX=0.5;entryY=0;entryDx=0;entryDy=0;startArrow=none;startFill=0;strokeColor=#000000;" parent="WIyWlLk6GJQsqaUBKTNV-1" source="JLqpty3g-pcIaHHwFfQo-28" target="JLqpty3g-pcIaHHwFfQo-63" edge="1">
          <mxGeometry relative="1" as="geometry" />
        </mxCell>
        <mxCell id="JLqpty3g-pcIaHHwFfQo-28" value="Peer" style="swimlane;fontStyle=2;align=center;verticalAlign=top;childLayout=stackLayout;horizontal=1;startSize=26;horizontalStack=0;resizeParent=1;resizeLast=0;collapsible=1;marginBottom=0;rounded=0;shadow=0;strokeWidth=1;" parent="WIyWlLk6GJQsqaUBKTNV-1" vertex="1">
          <mxGeometry x="620" y="350" width="185" height="240" as="geometry">
            <mxRectangle x="230" y="140" width="160" height="26" as="alternateBounds" />
          </mxGeometry>
        </mxCell>
        <mxCell id="JLqpty3g-pcIaHHwFfQo-29" value="+ When connected : &#xa;      - Receive all updates &#xa;=&gt; update the version local&#xa;      - Establish connections with &#xa;all others peer&#xa;      " style="text;align=left;verticalAlign=top;spacingLeft=4;spacingRight=4;overflow=hidden;rotatable=0;points=[[0,0.5],[1,0.5]];portConstraint=eastwest;" parent="JLqpty3g-pcIaHHwFfQo-28" vertex="1">
          <mxGeometry y="26" width="185" height="94" as="geometry" />
        </mxCell>
        <mxCell id="JLqpty3g-pcIaHHwFfQo-30" value="" style="line;html=1;strokeWidth=1;align=left;verticalAlign=middle;spacingTop=-1;spacingLeft=3;spacingRight=3;rotatable=0;labelPosition=right;points=[];portConstraint=eastwest;" parent="JLqpty3g-pcIaHHwFfQo-28" vertex="1">
          <mxGeometry y="120" width="185" height="120" as="geometry" />
        </mxCell>
        <mxCell id="JLqpty3g-pcIaHHwFfQo-3" value="-&gt; Enter port " style="text;align=left;verticalAlign=top;spacingLeft=4;spacingRight=4;overflow=hidden;rotatable=0;points=[[0,0.5],[1,0.5]];portConstraint=eastwest;" parent="WIyWlLk6GJQsqaUBKTNV-1" vertex="1">
          <mxGeometry x="155" y="200" width="185" height="26" as="geometry" />
        </mxCell>
        <mxCell id="JLqpty3g-pcIaHHwFfQo-17" value="-&gt; Enter ip + port of invitation" style="text;align=left;verticalAlign=top;spacingLeft=4;spacingRight=4;overflow=hidden;rotatable=0;points=[[0,0.5],[1,0.5]];portConstraint=eastwest;" parent="WIyWlLk6GJQsqaUBKTNV-1" vertex="1">
          <mxGeometry x="508" y="200" width="185" height="26" as="geometry" />
        </mxCell>
        <mxCell id="JLqpty3g-pcIaHHwFfQo-39" value="Thread 2" style="swimlane;fontStyle=2;align=center;verticalAlign=top;childLayout=stackLayout;horizontal=1;startSize=26;horizontalStack=0;resizeParent=1;resizeLast=0;collapsible=1;marginBottom=0;rounded=0;shadow=0;strokeWidth=1;" parent="WIyWlLk6GJQsqaUBKTNV-1" vertex="1">
          <mxGeometry x="180" y="780" width="185" height="258" as="geometry">
            <mxRectangle x="230" y="140" width="160" height="26" as="alternateBounds" />
          </mxGeometry>
        </mxCell>
        <mxCell id="JLqpty3g-pcIaHHwFfQo-40" value="+ To manager connections:&#xa;    - Listen() to the others players&#xa;    - Accept() connections &#xa;=&gt; send the information of new &#xa;connection to all peers&#xa;    " style="text;align=left;verticalAlign=top;spacingLeft=4;spacingRight=4;overflow=hidden;rotatable=0;points=[[0,0.5],[1,0.5]];portConstraint=eastwest;" parent="JLqpty3g-pcIaHHwFfQo-39" vertex="1">
          <mxGeometry y="26" width="185" height="194" as="geometry" />
        </mxCell>
        <mxCell id="JLqpty3g-pcIaHHwFfQo-41" value="" style="line;html=1;strokeWidth=1;align=left;verticalAlign=middle;spacingTop=-1;spacingLeft=3;spacingRight=3;rotatable=0;labelPosition=right;points=[];portConstraint=eastwest;" parent="JLqpty3g-pcIaHHwFfQo-39" vertex="1">
          <mxGeometry y="220" width="185" height="8" as="geometry" />
        </mxCell>
        <mxCell id="JLqpty3g-pcIaHHwFfQo-47" style="edgeStyle=orthogonalEdgeStyle;rounded=0;orthogonalLoop=1;jettySize=auto;html=1;entryX=1;entryY=0.5;entryDx=0;entryDy=0;dashed=1;startArrow=none;startFill=0;shape=link;" parent="WIyWlLk6GJQsqaUBKTNV-1" source="JLqpty3g-pcIaHHwFfQo-40" target="JLqpty3g-pcIaHHwFfQo-36" edge="1">
          <mxGeometry relative="1" as="geometry" />
        </mxCell>
        <mxCell id="JLqpty3g-pcIaHHwFfQo-49" style="edgeStyle=orthogonalEdgeStyle;shape=link;rounded=0;orthogonalLoop=1;jettySize=auto;html=1;dashed=1;startArrow=none;startFill=0;strokeColor=#000000;" parent="WIyWlLk6GJQsqaUBKTNV-1" source="JLqpty3g-pcIaHHwFfQo-48" edge="1">
          <mxGeometry relative="1" as="geometry">
            <mxPoint x="132.5" y="910" as="targetPoint" />
          </mxGeometry>
        </mxCell>
        <mxCell id="JLqpty3g-pcIaHHwFfQo-48" value="Shared memory" style="ellipse;whiteSpace=wrap;html=1;" parent="WIyWlLk6GJQsqaUBKTNV-1" vertex="1">
          <mxGeometry x="72.5" y="1080" width="120" height="80" as="geometry" />
        </mxCell>
        <mxCell id="JLqpty3g-pcIaHHwFfQo-52" value="Listen( master-peer) &lt;br&gt;+ Accept() new peer" style="text;html=1;align=center;verticalAlign=middle;resizable=0;points=[];autosize=1;" parent="WIyWlLk6GJQsqaUBKTNV-1" vertex="1">
          <mxGeometry x="780" y="265" width="120" height="30" as="geometry" />
        </mxCell>
        <mxCell id="JLqpty3g-pcIaHHwFfQo-53" style="edgeStyle=orthogonalEdgeStyle;rounded=0;orthogonalLoop=1;jettySize=auto;html=1;entryX=0.5;entryY=0;entryDx=0;entryDy=0;startArrow=none;startFill=0;strokeColor=#000000;" parent="WIyWlLk6GJQsqaUBKTNV-1" source="JLqpty3g-pcIaHHwFfQo-40" target="JLqpty3g-pcIaHHwFfQo-28" edge="1">
          <mxGeometry relative="1" as="geometry" />
        </mxCell>
        <mxCell id="JLqpty3g-pcIaHHwFfQo-54" value="Accept new peer&lt;br&gt;+ Send information of a the game &lt;br&gt;from the shared memory&amp;nbsp;&lt;br&gt;(change of map, monster ...)" style="text;html=1;align=center;verticalAlign=middle;resizable=0;points=[];autosize=1;" parent="WIyWlLk6GJQsqaUBKTNV-1" vertex="1">
          <mxGeometry x="395" y="455" width="190" height="60" as="geometry" />
        </mxCell>
        <mxCell id="JLqpty3g-pcIaHHwFfQo-57" value="Data of game" style="swimlane;fontStyle=2;align=center;verticalAlign=top;childLayout=stackLayout;horizontal=1;startSize=26;horizontalStack=0;resizeParent=1;resizeLast=0;collapsible=1;marginBottom=0;rounded=0;shadow=0;strokeWidth=1;" parent="WIyWlLk6GJQsqaUBKTNV-1" vertex="1">
          <mxGeometry x="990" y="-100" width="185" height="120" as="geometry">
            <mxRectangle x="230" y="140" width="160" height="26" as="alternateBounds" />
          </mxGeometry>
        </mxCell>
        <mxCell id="JLqpty3g-pcIaHHwFfQo-59" value="Must be the same (format)" style="text;html=1;align=center;verticalAlign=middle;resizable=0;points=[];autosize=1;" parent="JLqpty3g-pcIaHHwFfQo-57" vertex="1">
          <mxGeometry y="26" width="185" height="20" as="geometry" />
        </mxCell>
        <mxCell id="JLqpty3g-pcIaHHwFfQo-58" value="" style="line;html=1;strokeWidth=1;align=left;verticalAlign=middle;spacingTop=-1;spacingLeft=3;spacingRight=3;rotatable=0;labelPosition=right;points=[];portConstraint=eastwest;" parent="JLqpty3g-pcIaHHwFfQo-57" vertex="1">
          <mxGeometry y="46" width="185" height="74" as="geometry" />
        </mxCell>
        <mxCell id="JLqpty3g-pcIaHHwFfQo-51" style="edgeStyle=orthogonalEdgeStyle;rounded=0;orthogonalLoop=1;jettySize=auto;html=1;exitX=1;exitY=0.25;exitDx=0;exitDy=0;startArrow=none;startFill=0;strokeColor=#000000;entryX=0.75;entryY=0;entryDx=0;entryDy=0;" parent="WIyWlLk6GJQsqaUBKTNV-1" source="JLqpty3g-pcIaHHwFfQo-28" target="JLqpty3g-pcIaHHwFfQo-28" edge="1">
          <mxGeometry relative="1" as="geometry">
            <mxPoint x="712" y="550" as="targetPoint" />
            <Array as="points">
              <mxPoint x="805" y="470" />
              <mxPoint x="880" y="470" />
              <mxPoint x="880" y="300" />
              <mxPoint x="759" y="300" />
            </Array>
          </mxGeometry>
        </mxCell>
        <mxCell id="JLqpty3g-pcIaHHwFfQo-60" value="Main thread" style="swimlane;fontStyle=2;align=center;verticalAlign=top;childLayout=stackLayout;horizontal=1;startSize=26;horizontalStack=0;resizeParent=1;resizeLast=0;collapsible=1;marginBottom=0;rounded=0;shadow=0;strokeWidth=1;" parent="WIyWlLk6GJQsqaUBKTNV-1" vertex="1">
          <mxGeometry x="580" y="730" width="185" height="248" as="geometry">
            <mxRectangle x="230" y="140" width="160" height="26" as="alternateBounds" />
          </mxGeometry>
        </mxCell>
        <mxCell id="JLqpty3g-pcIaHHwFfQo-61" value="+ Playing Game:&#xa;    - Start the game (player can &#xa;play from now on)&#xa;    - Update()&#xa;    " style="text;align=left;verticalAlign=top;spacingLeft=4;spacingRight=4;overflow=hidden;rotatable=0;points=[[0,0.5],[1,0.5]];portConstraint=eastwest;" parent="JLqpty3g-pcIaHHwFfQo-60" vertex="1">
          <mxGeometry y="26" width="185" height="194" as="geometry" />
        </mxCell>
        <mxCell id="JLqpty3g-pcIaHHwFfQo-62" value="" style="line;html=1;strokeWidth=1;align=left;verticalAlign=middle;spacingTop=-1;spacingLeft=3;spacingRight=3;rotatable=0;labelPosition=right;points=[];portConstraint=eastwest;" parent="JLqpty3g-pcIaHHwFfQo-60" vertex="1">
          <mxGeometry y="220" width="185" height="8" as="geometry" />
        </mxCell>
        <mxCell id="JLqpty3g-pcIaHHwFfQo-63" value="Thread 2" style="swimlane;fontStyle=2;align=center;verticalAlign=top;childLayout=stackLayout;horizontal=1;startSize=26;horizontalStack=0;resizeParent=1;resizeLast=0;collapsible=1;marginBottom=0;rounded=0;shadow=0;strokeWidth=1;" parent="WIyWlLk6GJQsqaUBKTNV-1" vertex="1">
          <mxGeometry x="850" y="730" width="185" height="258" as="geometry">
            <mxRectangle x="230" y="140" width="160" height="26" as="alternateBounds" />
          </mxGeometry>
        </mxCell>
        <mxCell id="JLqpty3g-pcIaHHwFfQo-64" value="+ To manager connections:&#xa;    - Listen() to the others players&#xa;    - Accept() connections         &#xa;=&gt; send the information of new &#xa;connection to all peers&#xa;    " style="text;align=left;verticalAlign=top;spacingLeft=4;spacingRight=4;overflow=hidden;rotatable=0;points=[[0,0.5],[1,0.5]];portConstraint=eastwest;" parent="JLqpty3g-pcIaHHwFfQo-63" vertex="1">
          <mxGeometry y="26" width="185" height="194" as="geometry" />
        </mxCell>
        <mxCell id="JLqpty3g-pcIaHHwFfQo-65" value="" style="line;html=1;strokeWidth=1;align=left;verticalAlign=middle;spacingTop=-1;spacingLeft=3;spacingRight=3;rotatable=0;labelPosition=right;points=[];portConstraint=eastwest;" parent="JLqpty3g-pcIaHHwFfQo-63" vertex="1">
          <mxGeometry y="220" width="185" height="8" as="geometry" />
        </mxCell>
        <mxCell id="JLqpty3g-pcIaHHwFfQo-66" style="edgeStyle=orthogonalEdgeStyle;rounded=0;orthogonalLoop=1;jettySize=auto;html=1;entryX=1;entryY=0.5;entryDx=0;entryDy=0;dashed=1;startArrow=none;startFill=0;shape=link;" parent="WIyWlLk6GJQsqaUBKTNV-1" source="JLqpty3g-pcIaHHwFfQo-64" target="JLqpty3g-pcIaHHwFfQo-61" edge="1">
          <mxGeometry relative="1" as="geometry" />
        </mxCell>
        <mxCell id="JLqpty3g-pcIaHHwFfQo-67" style="edgeStyle=orthogonalEdgeStyle;shape=link;rounded=0;orthogonalLoop=1;jettySize=auto;html=1;dashed=1;startArrow=none;startFill=0;strokeColor=#000000;" parent="WIyWlLk6GJQsqaUBKTNV-1" source="JLqpty3g-pcIaHHwFfQo-68" edge="1">
          <mxGeometry relative="1" as="geometry">
            <mxPoint x="802.5" y="860" as="targetPoint" />
          </mxGeometry>
        </mxCell>
        <mxCell id="JLqpty3g-pcIaHHwFfQo-68" value="Shared memory" style="ellipse;whiteSpace=wrap;html=1;" parent="WIyWlLk6GJQsqaUBKTNV-1" vertex="1">
          <mxGeometry x="742.5" y="1030" width="120" height="80" as="geometry" />
        </mxCell>
        <mxCell id="2fZSMOCoQIJgiGsuQsai-3" value="" style="group" parent="WIyWlLk6GJQsqaUBKTNV-1" vertex="1" connectable="0">
          <mxGeometry x="-120" y="779" width="185" height="248" as="geometry" />
        </mxCell>
        <mxCell id="JLqpty3g-pcIaHHwFfQo-44" style="edgeStyle=orthogonalEdgeStyle;rounded=0;orthogonalLoop=1;jettySize=auto;html=1;entryX=0.5;entryY=0;entryDx=0;entryDy=0;" parent="2fZSMOCoQIJgiGsuQsai-3" target="JLqpty3g-pcIaHHwFfQo-35" edge="1">
          <mxGeometry relative="1" as="geometry">
            <mxPoint x="102.50000000000045" as="sourcePoint" />
          </mxGeometry>
        </mxCell>
        <mxCell id="JLqpty3g-pcIaHHwFfQo-35" value="Main thread - Python" style="swimlane;fontStyle=2;align=center;verticalAlign=top;childLayout=stackLayout;horizontal=1;startSize=26;horizontalStack=0;resizeParent=1;resizeLast=0;collapsible=1;marginBottom=0;rounded=0;shadow=0;strokeWidth=1;" parent="2fZSMOCoQIJgiGsuQsai-3" vertex="1">
          <mxGeometry width="185" height="248" as="geometry">
            <mxRectangle x="230" y="140" width="160" height="26" as="alternateBounds" />
          </mxGeometry>
        </mxCell>
        <mxCell id="JLqpty3g-pcIaHHwFfQo-36" value="+ Playing Game:&#xa;    - Start the game (player can &#xa;play from now on)&#xa;    - Update()&#xa;    " style="text;align=left;verticalAlign=top;spacingLeft=4;spacingRight=4;overflow=hidden;rotatable=0;points=[[0,0.5],[1,0.5]];portConstraint=eastwest;" parent="JLqpty3g-pcIaHHwFfQo-35" vertex="1">
          <mxGeometry y="26" width="185" height="194" as="geometry" />
        </mxCell>
        <mxCell id="JLqpty3g-pcIaHHwFfQo-37" value="" style="line;html=1;strokeWidth=1;align=left;verticalAlign=middle;spacingTop=-1;spacingLeft=3;spacingRight=3;rotatable=0;labelPosition=right;points=[];portConstraint=eastwest;" parent="JLqpty3g-pcIaHHwFfQo-35" vertex="1">
          <mxGeometry y="220" width="185" height="8" as="geometry" />
        </mxCell>
        <mxCell id="2fZSMOCoQIJgiGsuQsai-4" value="Peer" style="swimlane;fontStyle=1;align=center;verticalAlign=top;childLayout=stackLayout;horizontal=1;startSize=26;horizontalStack=0;resizeParent=1;resizeParentMax=0;resizeLast=0;collapsible=1;marginBottom=0;" parent="WIyWlLk6GJQsqaUBKTNV-1" vertex="1">
          <mxGeometry x="-1280" y="330" width="390" height="258" as="geometry" />
        </mxCell>
        <mxCell id="2fZSMOCoQIJgiGsuQsai-5" value="- Is a peer to show, run the Pygame ( thread Python (1) )&#xa;- Can handle connections: have multiples connections with others peers&#xa;(send + receive data game from (n-1) players-&gt; Thread_data Python&#xa;but run code in C (2) )" style="text;strokeColor=none;fillColor=none;align=left;verticalAlign=top;spacingLeft=4;spacingRight=4;overflow=hidden;rotatable=0;points=[[0,0.5],[1,0.5]];portConstraint=eastwest;" parent="2fZSMOCoQIJgiGsuQsai-4" vertex="1">
          <mxGeometry y="26" width="390" height="104" as="geometry" />
        </mxCell>
        <mxCell id="2fZSMOCoQIJgiGsuQsai-6" value="" style="line;strokeWidth=1;fillColor=none;align=left;verticalAlign=middle;spacingTop=-1;spacingLeft=3;spacingRight=3;rotatable=0;labelPosition=right;points=[];portConstraint=eastwest;" parent="2fZSMOCoQIJgiGsuQsai-4" vertex="1">
          <mxGeometry y="130" width="390" height="8" as="geometry" />
        </mxCell>
        <mxCell id="2fZSMOCoQIJgiGsuQsai-7" value="+ method(type): type" style="text;strokeColor=none;fillColor=none;align=left;verticalAlign=top;spacingLeft=4;spacingRight=4;overflow=hidden;rotatable=0;points=[[0,0.5],[1,0.5]];portConstraint=eastwest;" parent="2fZSMOCoQIJgiGsuQsai-4" vertex="1">
          <mxGeometry y="138" width="390" height="120" as="geometry" />
        </mxCell>
        <mxCell id="BejeK8lrdp4R0gQIXEE9-0" value="Master Peer" style="swimlane;fontStyle=1;align=center;verticalAlign=top;childLayout=stackLayout;horizontal=1;startSize=26;horizontalStack=0;resizeParent=1;resizeParentMax=0;resizeLast=0;collapsible=1;marginBottom=0;" parent="WIyWlLk6GJQsqaUBKTNV-1" vertex="1">
          <mxGeometry x="-1780" y="327" width="400" height="418" as="geometry" />
        </mxCell>
        <mxCell id="BejeK8lrdp4R0gQIXEE9-1" value="- A thread to run &#xa;- Is a peer to show, run the Pygame ( thread Python) (1)&#xa;- Can handle connections: have multiples connections with others peers&#xa;(send + receive data game from (n-1) players-&gt; Thread_data Python &#xa;but run code in C) (2)&#xa;          1. select(), wait for connecting?&#xa;&#xa;- Handle new connections: send information of new connection to all of &#xa;old peers (wait for new connection -&gt; Thread_connection in C) (3)" style="text;strokeColor=none;fillColor=none;align=left;verticalAlign=top;spacingLeft=4;spacingRight=4;overflow=hidden;rotatable=0;points=[[0,0.5],[1,0.5]];portConstraint=eastwest;" parent="BejeK8lrdp4R0gQIXEE9-0" vertex="1">
          <mxGeometry y="26" width="400" height="264" as="geometry" />
        </mxCell>
        <mxCell id="BejeK8lrdp4R0gQIXEE9-2" value="" style="line;strokeWidth=1;fillColor=none;align=left;verticalAlign=middle;spacingTop=-1;spacingLeft=3;spacingRight=3;rotatable=0;labelPosition=right;points=[];portConstraint=eastwest;" parent="BejeK8lrdp4R0gQIXEE9-0" vertex="1">
          <mxGeometry y="290" width="400" height="8" as="geometry" />
        </mxCell>
        <mxCell id="BejeK8lrdp4R0gQIXEE9-3" value="+ method(type): type" style="text;strokeColor=none;fillColor=none;align=left;verticalAlign=top;spacingLeft=4;spacingRight=4;overflow=hidden;rotatable=0;points=[[0,0.5],[1,0.5]];portConstraint=eastwest;" parent="BejeK8lrdp4R0gQIXEE9-0" vertex="1">
          <mxGeometry y="298" width="400" height="120" as="geometry" />
        </mxCell>
        <mxCell id="BejeK8lrdp4R0gQIXEE9-5" value="Game" style="swimlane;fontStyle=0;childLayout=stackLayout;horizontal=1;startSize=26;fillColor=none;horizontalStack=0;resizeParent=1;resizeParentMax=0;resizeLast=0;collapsible=1;marginBottom=0;" parent="WIyWlLk6GJQsqaUBKTNV-1" vertex="1">
          <mxGeometry x="1300" y="-70" width="300" height="78" as="geometry" />
        </mxCell>
        <mxCell id="BejeK8lrdp4R0gQIXEE9-6" value="+ Map : static (for the moment)" style="text;strokeColor=none;fillColor=none;align=left;verticalAlign=top;spacingLeft=4;spacingRight=4;overflow=hidden;rotatable=0;points=[[0,0.5],[1,0.5]];portConstraint=eastwest;" parent="BejeK8lrdp4R0gQIXEE9-5" vertex="1">
          <mxGeometry y="26" width="300" height="26" as="geometry" />
        </mxCell>
        <mxCell id="BejeK8lrdp4R0gQIXEE9-7" value="+ Movement" style="text;strokeColor=none;fillColor=none;align=left;verticalAlign=top;spacingLeft=4;spacingRight=4;overflow=hidden;rotatable=0;points=[[0,0.5],[1,0.5]];portConstraint=eastwest;" parent="BejeK8lrdp4R0gQIXEE9-5" vertex="1">
          <mxGeometry y="52" width="300" height="26" as="geometry" />
        </mxCell>
        <mxCell id="BejeK8lrdp4R0gQIXEE9-29" style="edgeStyle=orthogonalEdgeStyle;rounded=0;orthogonalLoop=1;jettySize=auto;html=1;entryX=0.25;entryY=0;entryDx=0;entryDy=0;" parent="WIyWlLk6GJQsqaUBKTNV-1" source="BejeK8lrdp4R0gQIXEE9-11" target="BejeK8lrdp4R0gQIXEE9-23" edge="1">
          <mxGeometry relative="1" as="geometry">
            <Array as="points">
              <mxPoint x="-1125" y="-60" />
            </Array>
          </mxGeometry>
        </mxCell>
        <mxCell id="BejeK8lrdp4R0gQIXEE9-11" value="PC 1&amp;nbsp;&lt;br&gt;Master" style="shape=process;whiteSpace=wrap;html=1;backgroundOutline=1;fillColor=#FF0000;" parent="WIyWlLk6GJQsqaUBKTNV-1" vertex="1">
          <mxGeometry x="-1425" y="-160" width="180" height="60" as="geometry" />
        </mxCell>
        <mxCell id="BejeK8lrdp4R0gQIXEE9-18" style="edgeStyle=orthogonalEdgeStyle;rounded=0;orthogonalLoop=1;jettySize=auto;html=1;exitX=0.5;exitY=0;exitDx=0;exitDy=0;entryX=0;entryY=0.5;entryDx=0;entryDy=0;" parent="WIyWlLk6GJQsqaUBKTNV-1" source="BejeK8lrdp4R0gQIXEE9-12" target="BejeK8lrdp4R0gQIXEE9-11" edge="1">
          <mxGeometry relative="1" as="geometry">
            <mxPoint x="-1470" y="40" as="targetPoint" />
            <Array as="points">
              <mxPoint x="-1590" y="-90" />
            </Array>
          </mxGeometry>
        </mxCell>
        <mxCell id="BejeK8lrdp4R0gQIXEE9-27" style="edgeStyle=orthogonalEdgeStyle;rounded=0;orthogonalLoop=1;jettySize=auto;html=1;entryX=0.659;entryY=0.03;entryDx=0;entryDy=0;entryPerimeter=0;" parent="WIyWlLk6GJQsqaUBKTNV-1" source="BejeK8lrdp4R0gQIXEE9-17" target="BejeK8lrdp4R0gQIXEE9-12" edge="1">
          <mxGeometry relative="1" as="geometry">
            <Array as="points">
              <mxPoint x="-1560" y="-35" />
              <mxPoint x="-1560" y="180" />
              <mxPoint x="-1561" y="180" />
            </Array>
          </mxGeometry>
        </mxCell>
        <mxCell id="BejeK8lrdp4R0gQIXEE9-17" value="(Thread connection)&lt;br&gt;0. Bind + Listen + Select + Wait&lt;br&gt;(Thread data)&lt;br&gt;1. Bind + Listen + Select + Wait" style="rounded=0;whiteSpace=wrap;html=1;" parent="WIyWlLk6GJQsqaUBKTNV-1" vertex="1">
          <mxGeometry x="-1425" y="-100" width="180" height="80" as="geometry" />
        </mxCell>
        <mxCell id="BejeK8lrdp4R0gQIXEE9-19" value="3. Connect()" style="text;html=1;align=center;verticalAlign=middle;resizable=0;points=[];autosize=1;" parent="WIyWlLk6GJQsqaUBKTNV-1" vertex="1">
          <mxGeometry x="-1660" y="-30" width="80" height="20" as="geometry" />
        </mxCell>
        <mxCell id="BejeK8lrdp4R0gQIXEE9-21" value="" style="group" parent="WIyWlLk6GJQsqaUBKTNV-1" vertex="1" connectable="0">
          <mxGeometry x="-1680" y="180" width="180" height="110" as="geometry" />
        </mxCell>
        <mxCell id="BejeK8lrdp4R0gQIXEE9-12" value="PC 2&lt;br&gt;Peer" style="shape=process;whiteSpace=wrap;html=1;backgroundOutline=1;" parent="BejeK8lrdp4R0gQIXEE9-21" vertex="1">
          <mxGeometry width="180" height="60" as="geometry" />
        </mxCell>
        <mxCell id="BejeK8lrdp4R0gQIXEE9-20" value="2. Create Thread: &lt;br&gt;Bind + Listen + Select + Wait + Receive" style="rounded=0;whiteSpace=wrap;html=1;" parent="BejeK8lrdp4R0gQIXEE9-21" vertex="1">
          <mxGeometry y="60" width="180" height="50" as="geometry" />
        </mxCell>
        <mxCell id="BejeK8lrdp4R0gQIXEE9-22" value="" style="group" parent="WIyWlLk6GJQsqaUBKTNV-1" vertex="1" connectable="0">
          <mxGeometry x="-1170" y="180" width="180" height="110" as="geometry" />
        </mxCell>
        <mxCell id="BejeK8lrdp4R0gQIXEE9-23" value="PC 3&lt;br&gt;Peer" style="shape=process;whiteSpace=wrap;html=1;backgroundOutline=1;" parent="BejeK8lrdp4R0gQIXEE9-22" vertex="1">
          <mxGeometry width="180" height="60" as="geometry" />
        </mxCell>
        <mxCell id="BejeK8lrdp4R0gQIXEE9-24" value="5. Create Thread:&lt;br&gt;Bind + Listen + Select + Wait + Receive" style="rounded=0;whiteSpace=wrap;html=1;" parent="BejeK8lrdp4R0gQIXEE9-22" vertex="1">
          <mxGeometry y="60" width="180" height="50" as="geometry" />
        </mxCell>
        <mxCell id="BejeK8lrdp4R0gQIXEE9-25" style="edgeStyle=orthogonalEdgeStyle;rounded=0;orthogonalLoop=1;jettySize=auto;html=1;entryX=1;entryY=0.5;entryDx=0;entryDy=0;" parent="WIyWlLk6GJQsqaUBKTNV-1" source="BejeK8lrdp4R0gQIXEE9-23" target="BejeK8lrdp4R0gQIXEE9-11" edge="1">
          <mxGeometry relative="1" as="geometry">
            <Array as="points">
              <mxPoint x="-1080" y="-90" />
            </Array>
          </mxGeometry>
        </mxCell>
        <mxCell id="BejeK8lrdp4R0gQIXEE9-26" value="6. Connect()" style="text;html=1;align=center;verticalAlign=middle;resizable=0;points=[];autosize=1;" parent="WIyWlLk6GJQsqaUBKTNV-1" vertex="1">
          <mxGeometry x="-1080" y="35" width="80" height="20" as="geometry" />
        </mxCell>
        <mxCell id="BejeK8lrdp4R0gQIXEE9-28" value="4. Send list of connections : &lt;br&gt;NULL&lt;br&gt;Save information of PC2" style="text;html=1;align=center;verticalAlign=middle;resizable=0;points=[];autosize=1;" parent="WIyWlLk6GJQsqaUBKTNV-1" vertex="1">
          <mxGeometry x="-1550" y="20" width="160" height="50" as="geometry" />
        </mxCell>
        <mxCell id="BejeK8lrdp4R0gQIXEE9-31" value="7. send list of connections : &lt;br&gt;[IP of PC2, PORT of PC 2]&lt;br&gt;Save information of PC3&lt;br&gt;to the list" style="text;html=1;align=center;verticalAlign=middle;resizable=0;points=[];autosize=1;" parent="WIyWlLk6GJQsqaUBKTNV-1" vertex="1">
          <mxGeometry x="-1280" y="35" width="160" height="60" as="geometry" />
        </mxCell>
        <mxCell id="BejeK8lrdp4R0gQIXEE9-32" style="edgeStyle=orthogonalEdgeStyle;rounded=0;orthogonalLoop=1;jettySize=auto;html=1;entryX=1;entryY=0.5;entryDx=0;entryDy=0;" parent="WIyWlLk6GJQsqaUBKTNV-1" source="BejeK8lrdp4R0gQIXEE9-23" target="BejeK8lrdp4R0gQIXEE9-12" edge="1">
          <mxGeometry relative="1" as="geometry" />
        </mxCell>
        <mxCell id="BejeK8lrdp4R0gQIXEE9-33" value="8. Connect()" style="text;html=1;align=center;verticalAlign=middle;resizable=0;points=[];autosize=1;" parent="WIyWlLk6GJQsqaUBKTNV-1" vertex="1">
          <mxGeometry x="-1390" y="180" width="80" height="20" as="geometry" />
        </mxCell>
        <mxCell id="BejeK8lrdp4R0gQIXEE9-34" value="&lt;b&gt;&lt;font style=&quot;font-size: 18px&quot;&gt;9. ... repeat ....&lt;/font&gt;&lt;/b&gt;" style="text;html=1;align=center;verticalAlign=middle;resizable=0;points=[];autosize=1;" parent="WIyWlLk6GJQsqaUBKTNV-1" vertex="1">
          <mxGeometry x="-1400" y="250" width="130" height="20" as="geometry" />
        </mxCell>
        <mxCell id="4f7NxrJ31sr9Qdtc7guB-0" value="Cnetwork.c" style="swimlane;fontStyle=1;align=center;verticalAlign=top;childLayout=stackLayout;horizontal=1;startSize=26;horizontalStack=0;resizeParent=1;resizeParentMax=0;resizeLast=0;collapsible=1;marginBottom=0;" parent="WIyWlLk6GJQsqaUBKTNV-1" vertex="1">
          <mxGeometry x="-2330" y="100" width="370" height="480" as="geometry" />
        </mxCell>
        <mxCell id="4f7NxrJ31sr9Qdtc7guB-1" value="+ ip[20] : ip public&#xa;+ master_socket : &#xa;+ port : port use for new connection&#xa;+ buffer&#xa;+ peer_socket[5] : table of peers&#xa;+ max_peer : &#xa;+ running_master_thread : maintain while loop&#xa;+ master_thread (pthread) " style="text;strokeColor=none;fillColor=none;align=left;verticalAlign=top;spacingLeft=4;spacingRight=4;overflow=hidden;rotatable=0;points=[[0,0.5],[1,0.5]];portConstraint=eastwest;" parent="4f7NxrJ31sr9Qdtc7guB-0" vertex="1">
          <mxGeometry y="26" width="370" height="154" as="geometry" />
        </mxCell>
        <mxCell id="4f7NxrJ31sr9Qdtc7guB-2" value="" style="line;strokeWidth=1;fillColor=none;align=left;verticalAlign=middle;spacingTop=-1;spacingLeft=3;spacingRight=3;rotatable=0;labelPosition=right;points=[];portConstraint=eastwest;" parent="4f7NxrJ31sr9Qdtc7guB-0" vertex="1">
          <mxGeometry y="180" width="370" height="8" as="geometry" />
        </mxCell>
        <mxCell id="4f7NxrJ31sr9Qdtc7guB-3" value="For master handle new connection:&#xa;+ get_ip_public() : Done&#xa;+ create_and_bind : done&#xa;+ listen_and_accept: Done&#xa;+ while_loop :&#xa;+ thread_C - independent:&#xa;&#xa;For normal peer : &#xa;+ Connect_to ( port , addresse ) " style="text;strokeColor=none;fillColor=none;align=left;verticalAlign=top;spacingLeft=4;spacingRight=4;overflow=hidden;rotatable=0;points=[[0,0.5],[1,0.5]];portConstraint=eastwest;" parent="4f7NxrJ31sr9Qdtc7guB-0" vertex="1">
          <mxGeometry y="188" width="370" height="292" as="geometry" />
        </mxCell>
        <mxCell id="HyNQQ9vOKWssMuV7AfVO-11" value="Thread Python 1&lt;br&gt;(affichage du jeu)" style="rounded=1;whiteSpace=wrap;html=1;" parent="WIyWlLk6GJQsqaUBKTNV-1" vertex="1">
          <mxGeometry x="-790" y="900" width="120" height="60" as="geometry" />
        </mxCell>
        <mxCell id="HyNQQ9vOKWssMuV7AfVO-12" value="Thread Python 2&lt;br&gt;(Gestion de données)&lt;br&gt;(send, recv)" style="rounded=1;whiteSpace=wrap;html=1;" parent="WIyWlLk6GJQsqaUBKTNV-1" vertex="1">
          <mxGeometry x="-580" y="900" width="120" height="60" as="geometry" />
        </mxCell>
        <mxCell id="HyNQQ9vOKWssMuV7AfVO-15" value="Shared memory 1" style="ellipse;whiteSpace=wrap;html=1;" parent="WIyWlLk6GJQsqaUBKTNV-1" vertex="1">
          <mxGeometry x="-700" y="1078" width="120" height="80" as="geometry" />
        </mxCell>
        <mxCell id="HyNQQ9vOKWssMuV7AfVO-16" value="Shared memory 2" style="ellipse;whiteSpace=wrap;html=1;fillColor=#f8cecc;strokeColor=#b85450;" parent="WIyWlLk6GJQsqaUBKTNV-1" vertex="1">
          <mxGeometry x="-450" y="1080" width="120" height="80" as="geometry" />
        </mxCell>
        <mxCell id="HyNQQ9vOKWssMuV7AfVO-17" value="" style="group" parent="WIyWlLk6GJQsqaUBKTNV-1" vertex="1" connectable="0">
          <mxGeometry x="-741" y="990" width="99" as="geometry" />
        </mxCell>
        <mxCell id="HyNQQ9vOKWssMuV7AfVO-13" style="edgeStyle=orthogonalEdgeStyle;rounded=0;orthogonalLoop=1;jettySize=auto;html=1;entryX=0.41;entryY=1.017;entryDx=0;entryDy=0;dashed=1;startArrow=none;startFill=0;shape=link;entryPerimeter=0;width=-3.1428571428571432;" parent="HyNQQ9vOKWssMuV7AfVO-17" target="HyNQQ9vOKWssMuV7AfVO-11" edge="1">
          <mxGeometry relative="1" as="geometry">
            <mxPoint x="201" y="-29" as="sourcePoint" />
            <mxPoint x="31" y="1" as="targetPoint" />
            <Array as="points">
              <mxPoint />
            </Array>
          </mxGeometry>
        </mxCell>
        <mxCell id="HyNQQ9vOKWssMuV7AfVO-14" style="edgeStyle=orthogonalEdgeStyle;shape=link;rounded=0;orthogonalLoop=1;jettySize=auto;html=1;dashed=1;startArrow=none;startFill=0;strokeColor=#000000;exitX=0.5;exitY=0;exitDx=0;exitDy=0;" parent="HyNQQ9vOKWssMuV7AfVO-17" source="HyNQQ9vOKWssMuV7AfVO-15" edge="1">
          <mxGeometry relative="1" as="geometry">
            <mxPoint x="99" as="targetPoint" />
            <mxPoint x="98.5" y="179" as="sourcePoint" />
          </mxGeometry>
        </mxCell>
        <mxCell id="HyNQQ9vOKWssMuV7AfVO-18" style="edgeStyle=orthogonalEdgeStyle;rounded=0;orthogonalLoop=1;jettySize=auto;html=1;entryX=0.41;entryY=1.017;entryDx=0;entryDy=0;dashed=1;startArrow=none;startFill=0;shape=link;entryPerimeter=0;width=-3.1428571428571432;" parent="WIyWlLk6GJQsqaUBKTNV-1" source="HyNQQ9vOKWssMuV7AfVO-20" edge="1">
          <mxGeometry relative="1" as="geometry">
            <mxPoint x="-299.2" y="961" as="sourcePoint" />
            <mxPoint x="-499.9999999999997" y="961.02" as="targetPoint" />
            <Array as="points">
              <mxPoint x="-300" y="990" />
              <mxPoint x="-500" y="990" />
            </Array>
          </mxGeometry>
        </mxCell>
        <mxCell id="HyNQQ9vOKWssMuV7AfVO-19" style="edgeStyle=orthogonalEdgeStyle;shape=link;rounded=0;orthogonalLoop=1;jettySize=auto;html=1;dashed=1;startArrow=none;startFill=0;strokeColor=#000000;exitX=0.512;exitY=0.016;exitDx=0;exitDy=0;width=-6.10738255033557;exitPerimeter=0;" parent="WIyWlLk6GJQsqaUBKTNV-1" source="HyNQQ9vOKWssMuV7AfVO-16" edge="1">
          <mxGeometry relative="1" as="geometry">
            <mxPoint x="-391" y="990" as="targetPoint" />
            <mxPoint x="-389" y="1027" as="sourcePoint" />
          </mxGeometry>
        </mxCell>
        <mxCell id="HyNQQ9vOKWssMuV7AfVO-20" value="Thread C&lt;br&gt;(Gestion de multi-joueurs)" style="rounded=1;whiteSpace=wrap;html=1;" parent="WIyWlLk6GJQsqaUBKTNV-1" vertex="1">
          <mxGeometry x="-360" y="900" width="120" height="60" as="geometry" />
        </mxCell>
        <mxCell id="HyNQQ9vOKWssMuV7AfVO-24" value="" style="html=1;dashed=0;whitespace=wrap;fillColor=#2875E2;strokeColor=#ffffff;points=[[0.005,0.63,0],[0.1,0.2,0],[0.9,0.2,0],[0.5,0,0],[0.995,0.63,0],[0.72,0.99,0],[0.5,1,0],[0.28,0.99,0]];shape=mxgraph.kubernetes.icon;prIcon=c_role" parent="WIyWlLk6GJQsqaUBKTNV-1" vertex="1">
          <mxGeometry x="-380" y="1027" width="50" height="48" as="geometry" />
        </mxCell>
        <mxCell id="HyNQQ9vOKWssMuV7AfVO-25" value="- mutex" style="text;html=1;align=center;verticalAlign=middle;resizable=0;points=[];autosize=1;" parent="WIyWlLk6GJQsqaUBKTNV-1" vertex="1">
          <mxGeometry x="-330" y="1041" width="60" height="20" as="geometry" />
        </mxCell>
        <mxCell id="64StA01NHR7elqT2-8iF-0" value="tube, tube nomee" style="text;html=1;align=center;verticalAlign=middle;resizable=0;points=[];autosize=1;" vertex="1" parent="WIyWlLk6GJQsqaUBKTNV-1">
          <mxGeometry x="-845" y="1080" width="110" height="20" as="geometry" />
        </mxCell>
      </root>
    </mxGraphModel>
  </diagram>
</mxfile>
